# AST/ASF file generated using VICON BodyLanguage
# -----------------------------------------------
:version 1.10
:name VICON
:units
  mass 1.0
  length 0.45
  angle deg
:documentation
   .ast/.asf automatically generated from VICON data using
   VICON BodyBuilder and BodyLanguage model FoxedUp or BRILLIANT.MOD
:root
   order TX TY TZ RX RY RZ
   axis XYZ
   position 0 0 0  
   orientation 0 0 0 
:bonedata
  begin
     id 1 
     name lhipjoint
     direction 0.623529 -0.717805 0.309788 
     length 2.23224 
     axis 0 0 0  XYZ
  end
  begin
     id 2 
     name lfemur
     direction 0.34202 -0.939693 0  
     length 7.11402  
     axis 0 0 20  XYZ
    dof rx ry rz
    limits (-160.0 20.0)
           (-70.0 70.0)
           (-60.0 70.0)
  end
  begin
     id 3 
     name ltibia
     direction 0.34202 -0.939693 0   
     length 6.78496   
     axis 0 0 20   XYZ
    dof rx
    limits (-10.0 170.0)
  end
  begin
     id 4 
     name lfoot
     direction 0.125078 -0.343648 0.930732   
     length 1.84054   
     axis -90 7.62852e-016 20   XYZ
    dof rx rz
    limits (-45.0 90.0)
           (-70.0 20.0)
  end
  begin
     id 5 
     name ltoes
     direction 1.53565e-011 -4.21893e-011 1   
     length 0.916474   
     axis -90 7.62852e-016 20   XYZ
    dof rx
    limits (-90.0 20.0)
  end
  begin
     id 6 
     name rhipjoint
     direction -0.564688 -0.757748 0.327026   
     length 2.11457  
     axis 0 0 0  XYZ 
  end
  begin
     id 7 
     name rfemur
     direction -0.34202 -0.939693 0   
     length 7.14609   
     axis 0 0 -20   XYZ
    dof rx ry rz
    limits (-160.0 20.0)
           (-70.0 70.0)
           (-70.0 60.0)
  end
  begin
     id 8 
     name rtibia
     direction -0.34202 -0.939693 0   
     length 6.78101   
     axis 0 0 -20   XYZ
    dof rx
    limits (-10.0 170.0)
 end
 begin
     id 9 
     name rfoot
     direction -0.0992671 -0.272734 0.956955   
     length 1.96168  
     axis -90 -7.62852e-016 -20   XYZ
    dof rx rz
    limits (-45.0 90.0)
           (-20.0 70.0)
  end
  begin
     id 10 
     name rtoes
     direction -1.5356e-011 -4.21891e-011 1   
     length 0.982933   
     axis -90 -7.62852e-016 -20   XYZ
    dof rx
    limits (-90.0 20.0)
  end
  begin
     id 11 
     name lowerback
     direction -0.00596953 0.998668 0.0512524   
     length 1.87557   
     axis 0 0 0   XYZ
    dof rx ry rz
    limits (-20.0 45.0)
           (-30.0 30.0)
           (-30.0 30.0)
  end
  begin
     id 12 
     name upperback
     direction 0.00584879 0.999652 0.0257308   
     length 1.87883   
     axis 0 0 0   XYZ
    dof rx ry rz
    limits (-20.0 45.0)
           (-30.0 30.0)
           (-30.0 30.0)
  end
  begin
     id 13 
     name thorax
     direction 0.010104 0.999947 0.00178881   
     length 1.87779   
     axis 0 0 0   XYZ
    dof rx ry rz
    limits (-20.0 45.0)
           (-30.0 30.0)
           (-30.0 30.0)
  end
  begin
     id 14 
     name lowerneck
     direction 0.0120771 0.995934 -0.0892773   
     length 1.40897   
     axis 0 0 0   XYZ
    dof rx ry rz
    limits (-20.0 45.0)
           (-30.0 30.0)
           (-30.0 30.0)
  end
  begin
     id 15 
     name upperneck
     direction -0.030568 0.999465 -0.0116366   
     length 1.38661   
     axis 0 0 0   XYZ
    dof rx ry rz
    limits (-20.0 45.0)
           (-30.0 30.0)
           (-30.0 30.0)
  end
  begin
     id 16
     name head
     direction -0.0170715 0.999854 -0.00104426  
     length 1.47052  
     axis 0 0 0   XYZ
    dof rx ry rz
    limits (-20.0 45.0)
           (-30.0 30.0)
           (-30.0 30.0)
  end
  begin
     id 17 
     name lclavicle
     direction 0.977763 0.206143 0.038532  
     length 3.02424  
     axis 0 0 0   XYZ
    dof ry rz
    limits (-20.0 10.0)
           (0.0 20.0)
  end
  begin
     id 18 
     name lhumerus
     direction 1 -4.48965e-011 -2.62654e-027   
     length 4.68382   
     axis 180 -30 -90   XYZ
    dof rx ry rz
    limits (-60.0 90.0)
           (-90.0 90.0)
           (-90.0 90.0)
  end
  begin
     id 19
     name lradius
     direction 1 -4.48973e-011 -1.54954e-027   
     length 2.98124   
     axis 180 -30 -90   XYZ
    dof rx
    limits (-10.0 170.0)
  end
  begin
     id 20
     name lwrist
     direction 1 -4.48959e-011 7.20928e-028   
     length 1.49062   
     axis -5.52449e-016 90 90   XYZ
    dof ry
    limits (-180.0 0.0)
 end
  begin
     id 21 
     name lhand
     direction 1 -4.48971e-011 1.44186e-027   
     length 0.707595   
     axis -9.20027e-016 90 90   XYZ
    dof rx rz
    limits (-90.0 90.0)
           (-45.0 45.0)
  end
  begin
     id 22 
     name lfingers
     direction 1 -4.48985e-011 2.88371e-027   
     length 0.570481   
     axis -1.84005e-015 90 90   XYZ
    dof rx
    limits (0.0 90.0)
  end
  begin
     id 23
     name lthumb
     direction 0.707107 -6.34929e-011 0.707107   
     length 0.819101   
     axis -90 45 2.85299e-015   XYZ
    dof rx rz
    limits (-45.0 45.0)
           (-45.0 45.0)
  end
  begin
     id 24 
     name rclavicle
     direction -0.958661 0.284411 -0.00895327   
     length 3.11921  
     axis 0 0 0   XYZ 
    dof ry rz
    limits (-10.0 20.0)
           (-20.0 0.0)
  end
  begin
     id 25 
     name rhumerus
     direction -1 -4.48963e-011 -4.22193e-027  
     length 4.75876   
     axis 180 30 90   XYZ
    dof rx ry rz
    limits (-90.0 60.0)
           (-90.0 90.0)
           (-90.0 90.0)
  end
  begin
     id 26 
     name rradius
     direction -1 -4.48968e-011 -1.07616e-027   
     length 2.93293   
     axis 180 30 90   XYZ
    dof rx
    limits (-10.0 170.0)
  end
  begin
     id 27 
     name rwrist
     direction -1 -4.48965e-011 7.20928e-028   
     length 1.46647   
     axis -5.52449e-016 -90 -90   XYZ
    dof ry
    limits (-180.0 0.0)
  end
  begin
     id 28
     name rhand
     direction -1 -4.48971e-011 1.44186e-027   
     length 0.831748   
     axis -9.20027e-016 -90 -90   XYZ
    dof rx rz
    limits (-90.0 90.0)
           (-45.0 45.0)
  end
  begin
     id 29
     name rfingers
     direction -1 -4.48961e-011 2.88371e-027   
     length 0.670577   
     axis -1.84005e-015 -90 -90   XYZ
    dof rx
    limits (0.0 90.0)
  end
  begin
     id 30
     name rthumb
     direction -0.707107 -6.34929e-011 0.707107   
     length 0.962818   
     axis -90 -45 -2.85299e-015   XYZ
    dof rx rz
    limits (-45.0 45.0)
           (-45.0 45.0)
  end
:hierarchy
  begin
    root lhipjoint rhipjoint lowerback
    lhipjoint lfemur
    lfemur ltibia
    ltibia lfoot
    lfoot ltoes
    rhipjoint rfemur
    rfemur rtibia
    rtibia rfoot
    rfoot rtoes
    lowerback upperback
    upperback thorax
    thorax lowerneck lclavicle rclavicle
    lowerneck upperneck
    upperneck head
    lclavicle lhumerus
    lhumerus lradius
    lradius lwrist
    lwrist lhand lthumb
    lhand lfingers
    rclavicle rhumerus
    rhumerus rradius
    rradius rwrist
    rwrist rhand rthumb
    rhand rfingers
  end

#!OML:ASF E:\id_vita\Project 1\Capture day 1\Session 1\Female.ASF
:FULLY-SPECIFIED
:DEGREES
121
root 13.2365 27.4356 0.164062 -117.08 -88.2393 143.607
lowerback -3.74207 -0.857947 -4.92411
upperback -4.61211 -1.18183 -0.292813
thorax -2.57436 -0.500169 2.44045
lowerneck 2.97782 1.53632 -4.36788
upperneck -14.8553 2.50748 7.50944
head -5.0794 0.889092 2.94278
rclavicle 1.56046e-014 -3.97569e-015
rhumerus 73.5442 -24.7863 -25.4108
rradius 35.6097
rwrist 0.989986
rhand -33.1316 -0.766485
rfingers 7.12502
rthumb -6.34128 -30.6516
lclavicle 1.56046e-014 -3.97569e-015
lhumerus 80.4673 24.0721 35.7203
lradius 24.2915
lwrist -20.9825
lhand -12.6934 30.2537
lfingers 7.12502
lthumb 13.3887 59.8035
rfemur -59.0793 2.67617 16.4777
rtibia 61.7399
rfoot 3.51297 -11.5149
rtoes -19.1777
lfemur -60.1389 0.774059 -21.0942
ltibia 70.6652
lfoot -4.39966 3.30223
ltoes -7.779
122
root 13.3251 27.4027 0.153793 -122.213 -87.991 148.238
lowerback -3.69983 -0.792179 -5.02985
upperback -4.48433 -1.08676 -0.338426
thorax -2.47213 -0.452831 2.45364
lowerneck 3.234 1.47791 -4.61907
upperneck -14.7572 2.43119 7.71124
head -5.09255 0.852947 3.0504
rclavicle 1.12313e-014 1.70955e-014
rhumerus 76.1593 -25.1968 -27.405
rradius 32.243
rwrist 3.90397
rhand -31.9371 -1.50798
rfingers 7.12502
rthumb -5.18803 -31.4245
lclavicle 1.12313e-014 1.70955e-014
lhumerus 83.4813 24.2617 40.0523
lradius 22.5593
lwrist -24.1193
lhand -12.2162 28.7438
lfingers 7.12502
lthumb 13.8487 58.2628
rfemur -58.5767 3.22394 16.2936
rtibia 64.7378
rfoot 3.61862 -11.0203
rtoes -19.1806
lfemur -59.1318 1.17794 -21.4174
ltibia 72.2936
lfoot -3.9119 3.18129
ltoes -7.27805
123
root 13.4126 27.3353 0.149312 -126.055 -87.8431 151.591
lowerback -3.53567 -0.738398 -4.9513
upperback -4.3721 -1.01882 -0.407874
thorax -2.45434 -0.422334 2.3406
lowerneck 3.41294 1.46974 -4.25375
upperneck -14.9172 2.38371 7.19395
head -5.16167 0.837167 2.82938
rclavicle 3.77691e-015 5.96354e-015
rhumerus 79.1849 -25.5481 -30.4292
rradius 29.0739
rwrist 7.56092
rhand -30.7854 -1.82528
rfingers 7.12502
rthumb -4.07589 -31.766
lclavicle 3.77691e-015 5.96354e-015
lhumerus 86.3134 24.387 44.0409
lradius 21.1965
lwrist -26.7451
lhand -11.9755 27.4654
lfingers 7.12502
lthumb 14.0806 56.9684
rfemur -58.1119 3.62141 16.2014
rtibia 67.7295
rfoot 3.4851 -10.1138
rtoes -18.8226
lfemur -58.1421 1.47712 -21.6546
ltibia 73.6976
lfoot -3.47137 3.04195
ltoes -6.85515
124
root 13.5025 27.2462 0.14843 -132.258 -87.9429 157.471
lowerback -3.41201 -0.708384 -4.5731
upperback -4.43116 -0.994014 -0.407433
thorax -2.59003 -0.416874 2.13208
lowerneck 4.72111 1.4147 -4.1497
upperneck -15.8195 2.31585 7.10785
head -5.66109 0.766692 2.79333
rclavicle 3.97569e-016 -7.15625e-015
rhumerus 82.5402 -25.6271 -34.4923
rradius 26.2107
rwrist 12.5532
rhand -29.38 -2.03372
rfingers 7.12502
rthumb -2.71873 -31.9961
lclavicle 3.97569e-016 -7.15625e-015
lhumerus 89.7228 23.9124 49.3687
lradius 19.7012
lwrist -30.3097
lhand -12.0425 25.8439
lfingers 7.12502
lthumb 14.016 55.3513
rfemur -57.7426 3.84981 16.4334
rtibia 70.5733
rfoot 3.45726 -9.23208
rtoes -18.3452
lfemur -57.3124 1.68707 -21.5881
ltibia 74.807
lfoot -3.08173 2.8225
ltoes -6.723
125
root 13.5789 27.1424 0.138261 -130.838 -87.6789 156.105
lowerback -3.77801 -0.732166 -4.82915
upperback -4.64973 -1.02075 -0.439037
thorax -2.60929 -0.424837 2.23904
lowerneck 5.94792 1.36449 -3.48346
upperneck -16.8356 2.1961 6.20566
head -6.17291 0.698013 2.40914
rclavicle -2.88238e-015 4.8901e-014
rhumerus 84.9486 -25.182 -37.1761
rradius 24.0945
rwrist 14.8891
rhand -30.0945 -1.45685
rfingers 7.12502
rthumb -3.40874 -31.4093
lclavicle -2.88238e-015 4.8901e-014
lhumerus 92.1846 23.2453 53.4202
lradius 18.5558
lwrist -33.2741
lhand -12.6681 25.1297
lfingers 7.12502
lthumb 13.4131 54.6779
rfemur -57.7596 4.16191 16.2039
rtibia 73.2512
rfoot 3.72936 -8.68657
rtoes -17.588
lfemur -56.7474 1.91534 -21.8957
ltibia 75.4916
lfoot -2.6419 2.5218
ltoes -5.96098
126
root 13.6626 27.0305 0.129418 -128.408 -87.3846 153.533
lowerback -3.79462 -0.751714 -5.1109
upperback -4.76571 -1.05302 -0.512858
thorax -2.71768 -0.432061 2.32069
lowerneck 6.96958 1.1995 -3.19251
upperneck -17.3716 1.92479 5.66176
head -6.50173 0.571644 2.20897
rclavicle -1.2921e-015 -2.66371e-014
rhumerus 87.2036 -24.8344 -39.7079
rradius 22.5958
rwrist 15.8389
rhand -29.3413 -0.312196
rfingers 7.12502
rthumb -2.68137 -30.2751
lclavicle -1.2921e-015 -2.66371e-014
lhumerus 93.7096 23.0213 55.4298
lradius 18.0213
lwrist -34.2526
lhand -13.2729 24.7495
lfingers 7.12502
lthumb 12.8302 54.3352
rfemur -57.5066 4.36137 15.9488
rtibia 75.6096
rfoot 4.01667 -8.19832
rtoes -16.5206
lfemur -55.8746 2.04753 -22.2204
ltibia 75.7317
lfoot -2.02497 2.17096
ltoes -4.35336
127
root 13.7451 26.9182 0.126077 -125.038 -87.1781 150.074
lowerback -3.89935 -0.747762 -5.30156
upperback -4.80031 -1.04491 -0.611493
thorax -2.69614 -0.425555 2.32436
lowerneck 6.16478 1.40972 -3.48655
upperneck -16.8109 2.23472 6.05788
head -6.20393 0.728189 2.35835
rclavicle 1.17283e-014 8.74653e-015
rhumerus 90.0915 -24.536 -43.4894
rradius 21.1639
rwrist 17.9985
rhand -28.4277 1.62995
rfingers 7.12502
rthumb -1.79901 -28.3422
lclavicle 1.17283e-014 8.74653e-015
lhumerus 95.4237 22.8353 57.6094
lradius 17.7486
lwrist -35.7887
lhand -13.4964 24.3262
lfingers 7.12502
lthumb 12.6147 53.9253
rfemur -57.2043 4.31171 15.7517
rtibia 77.6019
rfoot 4.23715 -7.65263
rtoes -14.6555
lfemur -54.9209 1.96733 -22.5065
ltibia 75.4775
lfoot -1.233 1.83375
ltoes -2.97884
128
root 13.8256 26.8033 0.125758 -126.305 -87.497 151.232
lowerback -3.93738 -0.772284 -4.89063
upperback -4.81287 -1.08193 -0.581363
thorax -2.68778 -0.456054 2.12463
lowerneck 5.00528 1.79946 -3.86701
upperneck -15.8191 2.81367 6.71031
head -5.73273 1.01898 2.58533
rclavicle -1.59028e-015 1.59028e-014
rhumerus 92.1615 -24.4245 -46.3045
rradius 19.979
rwrist 20.6928
rhand -29.1862 3.84237
rfingers 7.12502
rthumb -2.53155 -26.1224
lclavicle -1.59028e-015 1.59028e-014
lhumerus 97.1203 22.5294 60.2013
lradius 18.0304
lwrist -38.0933
lhand -13.0384 24.2772
lfingers 7.12502
lthumb 13.0561 53.8486
rfemur -56.7146 4.19139 16.1895
rtibia 79.1205
rfoot 4.72832 -7.1108
rtoes -13.2692
lfemur -53.9418 1.80496 -22.1949
ltibia 74.8448
lfoot -0.188699 1.57336
ltoes -1.46073
129
root 13.9039 26.6711 0.119299 -122.306 -87.4389 147.494
lowerback -4.31466 -0.8403 -5.03236
upperback -4.94595 -1.16222 -0.627526
thorax -2.60938 -0.496855 2.14991
lowerneck 5.23285 1.77578 -3.91827
upperneck -16.127 2.78306 6.73188
head -5.86769 0.995052 2.60464
rclavicle 1.48095e-014 1.59028e-014
rhumerus 95.4277 -23.6273 -51.3004
rradius 18.6814
rwrist 24.2741
rhand -28.3159 5.58774
rfingers 7.12502
rthumb -1.69098 -24.3853
lclavicle 1.48095e-014 1.59028e-014
lhumerus 98.1198 22.7478 60.4151
lradius 17.5007
lwrist -38.34
lhand -13.4131 24.6654
lfingers 7.12502
lthumb 12.6949 54.2595
rfemur -56.7323 4.08172 16.1442
rtibia 80.3235
rfoot 5.53724 -6.51859
rtoes -12.4144
lfemur -53.295 1.66514 -22.3324
ltibia 73.8883
lfoot 0.990157 1.55389
ltoes 0.113978
